<svg xmlns="http://www.w3.org/2000/svg" width="1440" height="960" viewBox="0 0 1440 960"><rect width="1440" height="960" fill="#f7f8fa"/><rect x="24" y="24" width="1392" height="912" rx="28" fill="#fff"/><rect x="24" y="24" width="668" height="912" rx="28" fill="#eef2ff"/><path d="M650 24h42v912h-42" fill="#eef2ff"/><g font-family="Inter,Arial,sans-serif"><rect x="70" y="68" width="34" height="34" rx="10" fill="#4668ed"/><path d="m79 90 8-13 8 13m-13-5h10" fill="none" stroke="#fff" stroke-width="2.5" stroke-linecap="round" stroke-linejoin="round"/><text x="117" y="92" font-size="20" font-weight="700" fill="#171a22">cloudly</text><text x="86" y="245" font-size="13" font-weight="700" letter-spacing="2" fill="#4668ed">YOUR SPACE, SIMPLIFIED</text><text x="86" y="302" font-size="40" font-weight="700" fill="#171a22">Everything you need,</text><text x="86" y="350" font-size="40" font-weight="700" fill="#171a22">right where you left it.</text><text x="86" y="397" font-size="15" fill="#687081">A calmer place for your files. Upload, organize,</text><text x="86" y="420" font-size="15" fill="#687081">and share in just a few clicks.</text>
<rect x="86" y="487" width="510" height="270" rx="18" fill="#fff"/><rect x="110" y="511" width="462" height="36" rx="9" fill="#f6f7f9"/><circle cx="127" cy="529" r="4" fill="#4668ed"/><rect x="141" y="526" width="108" height="6" rx="3" fill="#dfe2e9"/><rect x="110" y="565" width="220" height="76" rx="12" fill="#f8f9fc"/><rect x="127" y="581" width="32" height="32" rx="9" fill="#eef2ff"/><path d="M135 600h16m-8-8v16" stroke="#4668ed" stroke-width="1.5"/><rect x="171" y="584" width="112" height="7" rx="3" fill="#4b5160"/><rect x="171" y="599" width="75" height="5" rx="2" fill="#c3c7d1"/><rect x="344" y="565" width="228" height="76" rx="12" fill="#f8f9fc"/><rect x="361" y="581" width="32" height="32" rx="9" fill="#fff1ef"/><text x="377" y="601" font-size="8" font-weight="700" fill="#e56555" text-anchor="middle">PDF</text><rect x="405" y="584" width="118" height="7" rx="3" fill="#4b5160"/><rect x="405" y="599" width="79" height="5" rx="2" fill="#c3c7d1"/><rect x="110" y="657" width="462" height="76" rx="12" fill="#f8f9fc"/><circle cx="145" cy="695" r="17" fill="#e3f5eb"/><path d="m137 695 6 6 11-13" fill="none" stroke="#2d9a70" stroke-width="2"/><rect x="174" y="684" width="170" height="7" rx="3" fill="#4b5160"/><rect x="174" y="699" width="113" height="5" rx="2" fill="#c3c7d1"/><text x="86" y="818" font-size="12" fill="#858c9a">Private by default</text><circle cx="75" cy="814" r="3" fill="#4668ed"/><text x="236" y="818" font-size="12" fill="#858c9a">Simple sharing</text><circle cx="224" cy="814" r="3" fill="#4668ed"/>
<text x="916" y="226" font-size="27" font-weight="700" fill="#171a22">Create your account</text><text x="916" y="254" font-size="14" fill="#7c8390">Get started with your free cloud space.</text><text x="916" y="319" font-size="12" font-weight="600" fill="#353a45">Email address</text><rect x="916" y="332" width="420" height="50" rx="10" fill="#fff" stroke="#dfe2e8"/><text x="933" y="362" font-size="13" fill="#a3a8b2">you@example.com</text><text x="916" y="421" font-size="12" font-weight="600" fill="#353a45">Password</text><rect x="916" y="434" width="420" height="50" rx="10" fill="#fff" stroke="#dfe2e8"/><text x="933" y="464" font-size="13" fill="#a3a8b2">At least 8 characters</text><text x="1309" y="464" font-size="13" fill="#9097a3">◉</text><text x="916" y="507" font-size="11" fill="#969ca7">Use at least 8 characters.</text><rect x="916" y="536" width="420" height="50" rx="11" fill="#4668ed"/><text x="1126" y="567" font-size="13" font-weight="600" text-anchor="middle" fill="#fff">Create account</text><path d="M916 629h180M1156 629h180" stroke="#e7e9ed"/><rect x="1110" y="619" width="34" height="20" fill="#fff"/><text x="1127" y="633" font-size="11" text-anchor="middle" fill="#a1a6af">or</text><text x="1126" y="688" font-size="13" text-anchor="middle" fill="#616876">Already have an account? <tspan fill="#4668ed" font-weight="600">Sign in</tspan></text><text x="916" y="873" font-size="11" fill="#a1a6af">By creating an account, you agree to our Terms of Service and Privacy Policy.</text></g></svg>
